<svg class="monogram" viewBox="0 0 94 70" xmlns="http://www.w3.org/2000/svg">
<path d="M0.290597 52.5217C-0.00853139 52.147 0.0144785 51.7321 0.359626 51.2771C2.84469 48.3596 5.04213 46.4056 6.95195 45.4153C8.88478 44.4249 11.1513 45.6294 13.7514 49.0287C15.339 51.0362 16.7196 52.3477 17.8931 52.9633C19.0897 53.579 20.2632 53.231 21.4136 51.9195C22.7712 50.3403 22.7712 48.3596 21.4136 45.9774C20.0791 43.5952 17.5825 39.7409 13.9239 34.4144C9.75916 28.3385 7.66526 23.4269 7.64225 19.6796C7.64225 15.9056 10.2424 11.5026 15.4426 6.47051C23.1969 -0.997247 28.6963 -2.00098 31.9407 3.45932C32.7 4.7441 33.6089 5.76121 34.6673 6.51066C35.7488 7.26011 36.5196 7.46086 36.9798 7.1129C37.486 6.68464 37.8887 6.67126 38.1878 7.07275C38.51 7.44748 38.4294 7.91589 37.9462 8.47797C35.6683 10.8869 33.5629 12.426 31.63 13.0951C29.7202 13.7375 27.6608 12.5063 25.4519 9.40141C23.9102 7.23335 22.4491 5.98872 21.0685 5.66753C19.6879 5.31957 18.1347 6.05564 16.409 7.87574C14.3611 10.017 13.7629 12.6267 14.6142 15.7048C15.4886 18.7829 17.7206 22.7711 21.3101 27.6693C21.5402 27.9637 21.7933 28.0039 22.0694 27.7898L36.6692 16.6684C36.9683 16.4543 37.1869 16.3874 37.325 16.4677C37.486 16.548 37.5896 16.7086 37.6356 16.9495C37.7046 17.7257 38.4985 18.8499 40.0171 20.322C42.5022 22.7845 44.6881 25.7957 46.5749 29.3556C48.4848 32.9155 49.3361 37.0241 49.129 41.6814C48.7839 48.5871 46.0917 54.7165 41.0526 60.0698C36.0134 65.4498 30.376 68.742 24.1403 69.9465C23.427 70.1071 23.0358 69.9063 22.9668 69.3442C22.8978 68.7821 23.1739 68.4208 23.7952 68.2602C32.2628 65.8512 37.6241 60.6586 39.8791 52.6823C42.157 44.6792 40.6614 37.1981 35.3921 30.2389C33.8275 28.2314 32.2398 27.0135 30.6291 26.5853C29.0184 26.1303 26.9705 26.8262 24.4855 28.673L23.381 29.4359C23.0358 29.7035 22.9898 30.0247 23.2429 30.3995C26.0271 34.575 27.6033 38.3356 27.9715 41.6814C28.3396 45.0004 26.6829 48.6808 23.0013 52.7224C19.2737 56.8177 16.4665 59.1597 14.5797 59.7486C12.6929 60.3374 10.3459 58.9322 7.5387 55.5329C6.8254 54.7031 5.91651 53.7529 4.81203 52.6823C3.70756 51.6117 2.56857 51.5715 1.39507 52.5618C0.980893 52.883 0.612735 52.8697 0.290597 52.5217Z"/>
<path d="M93.5476 54.478C93.5476 48.3933 89.0944 45.3509 85.9842 45.3509C83.9343 45.3509 82.3792 46.5021 82.3792 48.9689C82.3792 51.6001 82.874 54.6424 82.874 56.9448C82.874 59.0826 82.4499 60.4805 80.8948 60.4805C76.8657 60.4805 78.7742 41.5686 71.8469 41.5686C67.8178 41.5686 68.1006 54.7247 64.6369 54.7247C63.0818 54.7247 62.2336 52.9979 62.2336 51.6823C62.2336 47.4888 65.2731 47.6533 65.2731 42.0619C65.2731 34.5794 68.5247 32.5237 72.8366 32.5237C75.1692 32.5237 78.138 34.9905 80.2586 34.9905C84.005 34.9905 85.0653 33.346 85.0653 30.3036C85.0653 26.5213 81.4603 24.959 81.4603 21.5877C81.4603 16.9009 93.7597 19.5321 93.7597 10.4873C93.7597 3.49807 80.8948 1.93578 68.8074 1.93578C62.4457 1.93578 54.1754 3.82697 54.1754 11.0628C54.1754 15.3386 56.8614 19.6143 60.6078 19.6143C64.5663 19.6143 65.9093 17.2298 65.9093 14.3519C65.9093 11.9673 63.506 10.2406 63.506 8.59607C63.506 6.7871 65.4852 6.12929 72.059 6.12929C81.0362 6.12929 84.8532 7.93826 84.8532 9.25387C84.8532 12.1318 74.8158 12.2962 74.8158 16.9009C74.8158 19.6965 76.9364 20.9299 76.9364 23.0678C76.9364 24.959 76.2295 25.5346 75.0278 25.5346C69.1609 25.5346 54.5995 26.2746 54.5995 31.7837C54.5995 35.7305 60.7492 36.0594 60.7492 40.4174C60.7492 45.5976 52.3375 50.8601 52.3375 55.8758C52.3375 60.4805 54.5995 65.5784 59.8303 65.5784C68.5954 65.5784 66.8282 54.7247 71.0694 54.7247C77.3605 54.7247 75.3106 65.3318 83.2981 65.3318C89.3065 65.3318 93.5476 61.5494 93.5476 54.478Z"/>
</svg>
